<svg width="105" height="105" viewBox="0 0 105 105" fill="none" xmlns="http://www.w3.org/2000/svg">
<path fill-rule="evenodd" clip-rule="evenodd" d="M52.5 26.25C42.8351 26.25 35.0001 34.085 35.0001 43.75C35.0001 53.4148 42.8351 61.25 52.5 61.25C62.1653 61.25 70 53.4148 70 43.75C70 34.085 62.1653 26.25 52.5 26.25ZM43.75 43.75C43.75 38.9175 47.6674 35 52.5 35C57.3326 35 61.25 38.9175 61.25 43.75C61.25 48.5826 57.3326 52.5 52.5 52.5C47.6674 52.5 43.75 48.5826 43.75 43.75Z" fill="black"/>
<path fill-rule="evenodd" clip-rule="evenodd" d="M84.5604 82.2692C76.5712 90.8692 65.1639 96.25 52.5 96.25C28.3375 96.25 8.75 76.6622 8.75 52.5C8.75 28.3375 28.3375 8.75 52.5 8.75C76.6622 8.75 96.25 28.3375 96.25 52.5C96.25 63.7157 92.0294 73.9458 85.0902 81.6887C85.1261 81.8313 85.1611 81.9748 85.1952 82.1192L84.5604 82.2692ZM17.5 52.5C17.5 33.17 33.17 17.5 52.5 17.5C71.8301 17.5 87.5 33.17 87.5 52.5C87.5 60.1615 85.0382 67.2477 80.8631 73.0113C80.8443 72.9894 80.8259 72.9676 80.8071 72.9457C78.7049 70.4782 76.1232 68.8428 73.2974 67.7696C67.9031 65.7204 61.2417 65.625 54.6875 65.625H50.3125C43.8187 65.625 37.5665 65.7029 32.6139 67.8436C29.4104 69.2278 26.9437 71.3549 25.1017 74.2814C20.3433 68.3038 17.5 60.7342 17.5 52.5ZM31.6354 80.6037C37.4616 84.9362 44.6814 87.5 52.5 87.5C60.9717 87.5 68.7404 84.49 74.795 79.4815C74.585 79.1661 74.3684 78.8804 74.1471 78.6205C73.1509 77.4515 71.8764 76.5896 70.1907 75.9491C66.563 74.5714 61.5803 74.375 54.6875 74.375H50.3125C43.3595 74.375 39.0617 74.5889 36.0854 75.8752C34.3476 76.6264 32.822 77.861 31.6354 80.6037Z" fill="black"/>
</svg>
