<svg width="30" height="30" viewBox="0 0 30 30" fill="none" xmlns="http://www.w3.org/2000/svg">
<path fill-rule="evenodd" clip-rule="evenodd" d="M28.5 6C28.5 6.39782 28.342 6.77936 28.0607 7.06066C27.7794 7.34196 27.3978 7.5 27 7.5H3C2.60218 7.5 2.22064 7.34196 1.93934 7.06066C1.65804 6.77936 1.5 6.39782 1.5 6C1.5 5.60218 1.65804 5.22064 1.93934 4.93934C2.22064 4.65804 2.60218 4.5 3 4.5H27C27.3978 4.5 27.7794 4.65804 28.0607 4.93934C28.342 5.22064 28.5 5.60218 28.5 6ZM28.5 15C28.5 15.3978 28.342 15.7794 28.0607 16.0607C27.7794 16.342 27.3978 16.5 27 16.5H3C2.60218 16.5 2.22064 16.342 1.93934 16.0607C1.65804 15.7794 1.5 15.3978 1.5 15C1.5 14.6022 1.65804 14.2206 1.93934 13.9393C2.22064 13.658 2.60218 13.5 3 13.5H27C27.3978 13.5 27.7794 13.658 28.0607 13.9393C28.342 14.2206 28.5 14.6022 28.5 15ZM27 25.5C27.3978 25.5 27.7794 25.342 28.0607 25.0607C28.342 24.7794 28.5 24.3978 28.5 24C28.5 23.6022 28.342 23.2206 28.0607 22.9393C27.7794 22.658 27.3978 22.5 27 22.5H3C2.60218 22.5 2.22064 22.658 1.93934 22.9393C1.65804 23.2206 1.5 23.6022 1.5 24C1.5 24.3978 1.65804 24.7794 1.93934 25.0607C2.22064 25.342 2.60218 25.5 3 25.5H27Z" fill="white"/>
</svg>
